<svg width="212" height="510" viewBox="0 0 212 510" fill="none" xmlns="http://www.w3.org/2000/svg">
<g opacity="0.53">
<path d="M155.227 513.495V132.996L226.204 175.689V513.495H155.227Z" fill="white" fill-opacity="0.08"/>
<path d="M1 577V203.973L155.227 132.996M155.227 132.996V513.495H226.204V175.689L155.227 132.996Z" stroke="white" stroke-opacity="0.49" stroke-width="1.8"/>
<path d="M277.241 510V1L357 45.1133V499.254L277.241 510Z" fill="white" fill-opacity="0.08"/>
<path d="M114 151V71.6944L277.241 1M277.241 1V510L357 499.254V45.1133L277.241 1Z" stroke="white" stroke-opacity="0.49" stroke-width="1.8"/>
<path d="M102.746 377.217L89.7402 382.879L89.2812 394.66C88.9752 401.24 89.4342 406.289 90.3523 406.289C91.1173 406.289 97.6967 403.535 104.888 400.169L118.047 394.201V383.491C118.047 377.676 117.588 372.474 116.976 372.168C116.211 371.862 109.938 374.157 102.746 377.217Z" fill="white" fill-opacity="0.24"/>
<path d="M37.8223 279.218V256.271L66.6398 244.531V268.012L37.8223 279.218Z" fill="white" fill-opacity="0.24"/>
<path d="M88.5198 261.074V238.66L117.871 227.454V249.867L88.5198 261.074Z" fill="white" fill-opacity="0.24"/>
<path d="M37.8223 328.315V304.834L66.6398 293.094V316.575L37.8223 328.315Z" fill="white" fill-opacity="0.24"/>
<path d="M90.6545 309.103V286.69L117.871 274.416V297.363L90.6545 309.103Z" fill="white" fill-opacity="0.24"/>
<path d="M37.8223 375.811V353.397L66.6398 341.657V364.604L37.8223 375.811Z" fill="white" fill-opacity="0.24"/>
<path d="M89.5871 357.666V335.253L117.871 322.978V346.993L89.5871 357.666Z" fill="white" fill-opacity="0.24"/>
<path d="M37.8223 424.374V401.426L65.0388 389.686V412.633L37.8223 424.374Z" fill="white" fill-opacity="0.24"/>
<path d="M37.8223 472.937V449.989L65.0388 438.782L66.6398 460.662L37.8223 472.937Z" fill="white" fill-opacity="0.24"/>
<path d="M89.5871 454.258V431.845L116.804 420.104V443.585L89.5871 454.258Z" fill="white" fill-opacity="0.24"/>
</g>
</svg>
