<svg width="28" height="26" viewBox="0 0 28 26" fill="none" xmlns="http://www.w3.org/2000/svg">
<path d="M11.4188 0.832172C9.78914 1.06186 8.53133 1.46655 7.16414 2.19936C3.94305 3.92748 1.61883 7.07749 0.935234 10.6486C0.623516 12.2673 0.639922 14.0064 0.984453 15.6197C1.25789 16.8939 2.00164 18.6658 2.70711 19.7267C3.63133 21.1048 4.85633 22.3298 6.23445 23.254C6.91805 23.708 8.30711 24.3806 9.10555 24.6431C10.522 25.1025 11.7688 25.2775 13.3438 25.2337C14.8095 25.19 15.8048 25.0095 17.1227 24.5392C20.5352 23.3197 23.3407 20.5033 24.5274 17.1017C25.4079 14.5751 25.4516 11.7915 24.6587 9.2978C24.4454 8.61967 24.0626 7.68452 24.0079 7.70639C23.9587 7.7228 22.5095 9.41264 22.3837 9.59858C22.3071 9.70796 22.3126 9.76264 22.4438 10.2275C23.2587 13.0439 22.7884 16.0681 21.1751 18.4744C19.179 21.4384 15.8266 23.0845 12.2884 22.8384C7.8368 22.5267 4.16727 19.2837 3.27039 14.8595C3.16102 14.3126 3.14461 14.072 3.14461 13.0001C3.14461 11.9283 3.16102 11.6876 3.27039 11.1408C4.16727 6.71655 7.82586 3.47358 12.2665 3.16186C14.0001 3.04155 15.7173 3.36967 17.254 4.11342C17.8009 4.37592 18.7524 4.97202 19.1735 5.31655L19.3376 5.45327L19.8845 4.99936C20.1798 4.75327 20.6009 4.40874 20.8196 4.2392L21.2134 3.93295L20.9837 3.71967C20.8579 3.60483 20.568 3.36967 20.3438 3.20014C18.7688 2.01342 16.9259 1.23139 14.9298 0.881392C14.2079 0.76108 12.1352 0.728266 11.4188 0.832172Z" fill="#F9B125"/>
<path d="M26.6055 2.49488C24.8118 2.96519 23.2914 3.79644 21.2188 5.45348C19.5836 6.76598 17.7024 8.51051 16.1657 10.1511C15.236 11.141 14.8203 11.6058 13.6391 12.973L13.3602 13.2957L13.2618 12.891C12.9555 11.6058 12.2664 9.97066 11.7086 9.18316C11.2438 8.53238 10.6532 8.15504 9.95316 8.06207C9.65785 8.02379 9.193 8.12769 8.843 8.30816C7.91878 8.80035 7.55238 9.83394 7.89144 11.0152C8.06644 11.6168 10.4453 17.7199 10.6805 18.1683C10.9211 18.6277 11.3805 19.0707 11.7469 19.2019C12.1844 19.355 12.8735 19.3058 13.3438 19.0925C14.1258 18.7425 14.5578 18.2777 15.761 16.4839C18.3969 12.5629 21.186 8.98082 24.1118 5.75426C24.8555 4.93394 26.8735 2.8066 27.1469 2.56051C27.2836 2.42926 27.3328 2.33629 27.2508 2.33629C27.2235 2.34176 26.9391 2.41285 26.6055 2.49488Z" fill="#F9B125"/>
</svg>
