<svg width="68" height="69" viewBox="0 0 68 69" fill="none" xmlns="http://www.w3.org/2000/svg">
<path d="M10.1344 16.8921L4.18496 16.8937C2.77979 16.8939 0.103738 17.5044 0.0873706 15.5922C0.0742495 14.0586 0.103797 12.5201 0.10092 10.9855C0.0931638 6.83559 -0.166033 8.15475 3.34699 5.93294L9.06797 2.34407C13.5148 -0.450301 11.9727 0.0305161 17.3281 0.0447209C18.099 0.0517431 19.665 -0.0890613 20.3385 0.0958816C20.7036 0.196098 21.0191 0.653479 21.3643 0.84741L28.5003 4.9037C31.1401 6.42429 30.339 6.53644 33.2268 6.53363L51.7873 6.53223C52.6902 6.53083 55.6867 6.40403 56.3851 6.62532C56.488 6.65783 67.9298 15.1614 67.971 15.9293C68.0517 17.4254 63.8856 16.8752 62.7418 16.8921V32.3785C66.5213 33.5606 66.697 38.738 62.6096 40.1929V44.3436C63.9795 44.339 66.87 43.6914 66.8875 45.4495L66.8937 48.959C66.898 49.9433 67.1571 50.8503 66.4441 51.6097C65.9377 51.6571 65.4034 51.6127 64.8941 51.6119L58.8789 51.6123C57.9898 51.6151 56.4367 51.962 56.3379 50.6635C56.273 49.8078 56.1006 44.9421 56.604 44.518C56.98 44.2014 60.1539 44.3414 60.7651 44.3436V40.1929C57.9846 39.6789 56.8604 36.0723 58.6678 36.0206C59.4811 35.9973 59.7407 37.3903 60.2715 37.9015C62.0908 39.6534 64.8919 36.8494 63.3234 34.9356C61.8455 33.1323 60.8934 35.9189 60.901 31.0967L60.9035 16.8921H33.3769H20.6515V59.0961L23.7248 59.0925C26.8441 59.0957 26.4975 59.1716 26.4979 61.9792L26.5004 66.4716C27.7863 66.474 29.3078 66.3735 30.5592 66.4716L30.6144 66.5115C31.4948 67.1405 31.2505 68.4344 30.0999 68.4751C29.6102 68.4925 29.1093 68.4604 28.6181 68.4602L5.12813 68.4586C3.8442 68.4574 2.38742 68.5375 1.13001 68.455C-0.144047 68.3716 -0.483408 66.8084 0.858273 66.5055C1.50986 66.3584 3.57176 66.4674 4.34611 66.4716L4.33308 60.2797C4.33133 58.7258 5.81645 59.0881 6.87975 59.0897L10.1344 59.0961V16.8921ZM14.1166 2.00249C12.7899 2.00626 12.4647 2.59151 11.3629 3.2551C9.00499 4.67558 4.19371 8.11201 1.98803 8.96189V14.9114H6.89161H18.9642V2.00249H14.1166ZM20.8162 2.80863V6.53022L25.1698 6.53163C25.8978 6.53303 26.6604 6.58439 27.3853 6.53022C25.3291 5.30737 22.9482 3.88167 20.8162 2.80863ZM24.4469 8.47215H22.2741C23.4884 9.59228 24.7496 10.6584 25.9876 11.7505L29.0195 14.4789C29.8171 13.6886 30.705 12.9906 31.5354 12.2364C32.9385 10.975 34.378 9.75619 35.7616 8.47215H24.4469ZM53.4884 8.47215H40.5564C41.6121 9.45585 42.7267 10.3804 43.8267 11.3105C44.9781 12.3169 46.237 13.2871 47.2105 14.4789C47.9425 13.5558 53.5895 8.69986 53.5934 8.46693L53.4884 8.47215ZM56.3074 8.78313C54.7527 9.87878 53.2829 11.4206 51.8895 12.7258C51.104 13.4615 50.2575 14.1472 49.5001 14.9114H57.1893H63.8278C63.2437 14.2849 62.4868 13.7586 61.8171 13.2293L58.2783 10.4614C57.6253 9.95562 56.8412 9.42334 56.3074 8.78313ZM38.1191 8.96189L34.224 12.4092C33.3195 13.2063 32.3215 13.9903 31.5354 14.9114H38.4335H45.008L40.6501 11.1117C40.0753 10.6055 38.6798 9.23936 38.1191 8.96189ZM20.8162 9.81919V14.9114H26.5004C25.5786 13.8403 22.0377 10.6209 20.8162 9.81919ZM14.7629 16.8921L16.9317 18.3697C17.5693 18.8053 18.2401 19.3508 18.9642 19.6183C18.8692 18.7393 18.9722 17.7805 18.9642 16.8921L16.159 16.8873C15.7007 16.8855 15.2188 16.852 14.7629 16.8921ZM12.0738 17.438V25.8477C13.3033 25.0151 14.5507 24.2007 15.7601 23.3376C16.5917 22.7919 17.4369 22.2606 18.2497 21.6854C16.4815 20.3526 13.9959 18.5896 12.0738 17.438ZM18.7199 23.7822C17.0357 24.7378 14.1102 26.7411 12.5759 27.9501C13.4046 28.4798 14.2307 29.0073 15.0308 29.5825C16.2168 30.4406 17.4482 31.3338 18.7199 32.0493L18.7177 25.4769C18.7174 25.104 18.9129 24.0507 18.7199 23.7822ZM12.0738 30.0345V38.1284C13.3295 37.3582 14.4968 36.4281 15.7601 35.6835C16.5402 35.1177 17.3356 34.5634 18.1408 34.0363C16.0406 32.8418 14.1945 31.1789 12.0738 30.0345ZM18.7199 36.0334C16.6909 37.4062 14.7052 39.001 12.5759 40.1929C13.4666 40.7068 14.3112 41.2842 15.1544 41.8762C16.3163 42.7293 17.4824 43.6111 18.7199 44.3436C18.7195 43.5283 18.7535 36.1026 18.7199 36.0334ZM12.0738 42.1327V50.4745C13.3554 49.8074 14.5645 48.8304 15.7601 48.0074C16.5698 47.4578 17.4192 46.93 18.1408 46.2603C16.3779 45.4084 13.7863 43.2973 12.0738 42.1327ZM58.1811 46.2603V49.6708H65.0482V46.2603H58.1811ZM18.7199 48.4139C16.9162 49.4405 14.3106 51.3096 12.5759 52.6051C13.4467 53.144 14.2702 53.7671 15.1544 54.2812C16.2976 55.1256 17.511 55.959 18.7199 56.6982C18.7197 55.879 18.7572 48.4833 18.7199 48.4139ZM12.0738 54.6559V59.0961H18.7199C18.038 58.3275 13.0236 55.2211 12.0738 54.6559ZM6.25499 61.094V66.4716H24.5927V61.094C18.4823 61.0938 12.3642 61.0222 6.25499 61.094Z" fill="black"/>
</svg>
