<svg width="66" height="71" viewBox="0 0 66 71" fill="none" xmlns="http://www.w3.org/2000/svg">
<path d="M18.9489 49.713C20.0382 50.0573 21.5742 50.9731 22.6424 51.5024C24.745 52.5443 26.907 53.5103 28.9604 54.6517C30.2506 55.3689 29.671 57.1045 28.4147 56.8816C27.7045 56.7555 26.1687 55.8492 25.4575 55.4923L20.0859 52.8079C18.7306 52.13 16.6784 51.7489 16.6424 50.0346C16.5751 46.8353 16.641 43.6177 16.641 40.4164L16.6386 13.3483C16.6354 8.04645 15.648 8.96771 19.8882 6.77875L30.3403 1.24299C31.147 0.820901 31.9867 0.294933 32.843 5.71976e-05C33.5983 -0.016555 39.8196 3.59046 40.9724 4.19967L46.5131 7.10575C50.1047 9.00506 49.2447 8.04315 49.2453 12.7078L49.2458 46.7396C49.2458 47.7472 49.377 49.8963 49.24 50.799C49.1329 51.5038 47.943 51.9082 47.4133 52.1683L40.4472 55.6631C39.5957 56.0889 38.7377 56.5966 37.856 56.9454C36.9496 57.3039 36.0915 56.4532 36.3596 55.4742C36.6202 54.5224 38.2463 54.1361 38.9957 53.7478C41.6286 52.3838 44.3423 51.1579 46.9333 49.713V11.4656C46.1692 11.7181 45.4444 12.1542 44.7286 12.5278L40.9969 14.5145C38.7147 15.7452 36.3777 16.8725 34.1242 18.1585V66.9387C36.9679 65.4216 39.8849 64.0353 42.7626 62.588L60.2876 53.4918C61.3038 52.9532 62.3525 52.2667 63.4358 51.9032C62.5198 51.1963 61.3532 50.6942 60.3251 50.1764L54.8234 47.4342C53.8726 46.9672 52.848 46.5487 51.9371 46.0066C50.7759 45.3155 51.1055 43.8931 52.327 43.6364C53.555 43.9698 55.2039 45.0081 56.3916 45.5921L62.4186 48.563C62.9836 48.8449 65.5141 49.9068 65.802 50.4203C66.0082 50.788 65.988 52.613 65.836 53.0228C65.5614 53.7628 63.6422 54.4568 62.9719 54.8087L57.3091 57.7581C49.4237 61.9426 41.4571 65.9603 33.4667 69.9262C33.3109 70.0094 33.1385 70.0641 32.9734 70.1256C32.4194 69.9775 31.8848 69.6751 31.3722 69.4173L8.26627 57.5768C6.82754 56.8489 0.813239 54.131 0.065891 53.2086C-0.15087 49.8579 0.0354586 50.416 2.68308 49.0448L11.5219 44.4491C12.1023 44.1511 12.6803 43.8202 13.3057 43.6364C14.333 43.9735 15.0538 45.0566 13.9138 45.8623C12.8529 46.6122 11.0623 47.4105 9.86215 48.03L2.38039 51.9032C3.4249 52.4793 4.52821 52.9705 5.59251 53.5097L31.7589 66.9387V18.1585C27.6811 15.8676 23.1452 13.4853 18.9489 11.4656V49.713ZM32.843 2.62589C30.1376 4.17516 27.1689 5.72153 24.3957 7.16449C23.0089 7.88578 21.5329 8.53665 20.205 9.36376C21.961 10.2154 23.6745 11.1767 25.3995 12.0929L29.6388 14.2931C30.1519 14.5641 32.6157 15.9528 32.9734 16.0012C37.201 13.8504 41.4405 11.6574 45.598 9.36376C44.1105 8.51583 42.5768 7.75467 41.0627 6.95908L34.4436 3.45556C33.9156 3.17172 33.3964 2.8541 32.843 2.62589Z" fill="black"/>
<path d="M39.8513 24.3191C39.051 24.3232 38.1866 23.6021 38.5935 22.7087C38.8925 22.0524 40.8977 21.0699 41.596 20.8115C42.8608 20.7008 43.4179 22.1845 42.4048 22.9771C42.0048 23.2903 40.3294 24.1598 39.8513 24.3191Z" fill="black"/>
<path d="M39.8512 32.2569C39.033 32.4372 38.3 31.4393 38.6126 30.6624C38.8585 30.0514 40.9745 28.9942 41.596 28.7471C42.4709 28.6028 43.2863 29.4795 42.8721 30.378C42.4845 31.2183 40.6319 31.9875 39.8512 32.2569Z" fill="black"/>
<path d="M39.8514 40.1834C39.0108 40.1279 38.1353 39.4207 38.6952 38.4714C39.0402 37.8861 41.1464 36.8427 41.8342 36.6709C42.5437 36.7894 43.3076 37.5025 42.9168 38.2967C42.6028 38.9344 40.5513 39.956 39.8514 40.1834Z" fill="black"/>
<path d="M39.8513 48.3611C38.0732 48.4346 37.5667 46.1461 41.5961 44.7916C42.8119 44.7578 43.5345 46.1725 42.467 46.9874C41.9786 47.3605 40.4355 48.1518 39.8513 48.3611Z" fill="black"/>
</svg>
