<svg width="91" height="62" viewBox="0 0 91 62" fill="none" xmlns="http://www.w3.org/2000/svg">
<path d="M74.9129 11.5217L74.9103 4.89328C74.9103 4.05094 74.5178 0.463097 75.5632 0.167782C76.1957 -0.0108676 80.2525 0.101318 81.2439 0.100847L86.4781 0.0980198C91.2842 0.09637 90.6381 -0.269886 90.6379 4.06909L90.6391 51.4054C90.6391 52.6022 90.6792 53.8191 90.5368 55.009C90.0975 58.6796 87.0192 61.7259 83.2272 61.9474C81.493 62.0487 79.7176 61.9726 77.9797 61.9717L11.0098 61.9731C9.87188 61.9733 8.6737 62.0447 7.54247 61.9222C3.80207 61.5166 0.899669 58.3388 0.702196 54.6581C0.637232 53.4474 0.681664 52.2199 0.683767 51.0069L0.684103 9.08425C0.691942 4.52962 2.50623 0.379663 7.87709 0.100375C11.7529 -0.641564 15.9254 2.84989 16.2822 6.60365C16.4928 8.81839 16.3685 11.1173 16.3678 13.3414L16.3671 50.3564C16.3678 51.4424 16.886 53.8829 15.2045 53.9579C13.9681 54.0128 13.7147 52.3967 13.2549 51.5678C10.6656 46.9 3.09781 49.0401 3.32234 54.5377C3.5233 59.4583 7.78952 59.4809 11.3148 59.4793L77.6556 59.4814C79.3793 59.4821 81.1325 59.5448 82.8532 59.4694C85.7099 59.3442 88.2238 56.7878 88.0434 53.9216C87.7083 48.6055 79.8798 47.2578 77.7445 52.0196C77.4221 52.7387 76.7332 55.3802 75.2188 53.8026C74.5747 53.1318 74.9115 50.0007 74.9119 49.0665L74.9129 13.962H26.2654V14.8211H29.3931V17.3304H26.2654C26.2231 17.8416 26.2577 18.3813 26.2587 18.8954L26.2654 21.8019H29.3931C29.4247 22.6131 29.3946 23.4359 29.3931 24.2483H26.2654V28.6785H29.3931V31.1433H26.2654V35.6911H29.3931C29.3967 36.5365 29.4027 37.3821 29.3931 38.2275H26.2654V45.2912H28.7337V41.2544H31.1855V45.2912H36.1563V41.2544H38.6494V45.2912H43.482V41.2544H45.9984V45.2912H50.826V41.2544H53.3459V45.2912H58.1826V35.4556C58.1506 34.6672 57.9558 33.4172 58.4011 32.7245C59.5627 30.9179 61.6474 34.2296 62.2318 34.9284L66.724 40.2879C68.2575 42.1147 69.8848 43.8851 71.3817 45.7379C73.4943 48.3526 68.2504 47.752 67.2276 47.7516L29.3073 47.7511C27.9669 47.7518 25.8332 47.8748 24.5997 47.6839C23.2251 47.4711 23.7459 44.311 23.7471 43.2479L23.7498 13.962C22.2822 13.9219 20.803 13.9608 19.3342 13.962V11.5217H74.9129ZM8.17464 2.54609C3.01963 2.76339 3.19301 7.12947 3.19468 10.6511L3.19925 38.6529C3.1993 42.0258 3.29387 45.4223 3.19796 48.7921C4.60355 47.3071 6.52444 46.6603 8.54176 46.5331C10.7366 46.592 12.0283 47.1657 13.8326 48.3535L13.8352 11.102C13.8366 8.64139 14.3006 5.9131 12.3469 4.00216C11.3368 3.0144 9.63191 2.18949 8.17464 2.54609ZM77.428 2.54609L77.4276 43.5797C77.4273 45.1607 77.3262 46.7791 77.428 48.3535C80.4886 46.073 84.1577 45.9764 87.2659 48.1207C87.5579 48.3417 87.8629 48.556 88.1421 48.7921V2.54609H77.428ZM60.7071 37.1144V45.2912H67.5596C66.5479 43.7965 65.2292 42.4661 64.0722 41.0781C63.1696 39.9954 61.7193 38.0239 60.7071 37.1144Z" fill="black"/>
</svg>
